<?xml version="1.0" encoding="UTF-8"?>
<svg version="1.1" xmlns="http://www.w3.org/2000/svg" width="1170" height="315">
<path d="M0 0 C7.59 0 15.18 0 23 0 C26.68120984 7.96045016 30.09493225 15.99194272 33.375 24.125 C34.33699015 26.49879902 35.29922987 28.87249691 36.26171875 31.24609375 C36.72626465 32.39319824 37.19081055 33.54030273 37.66943359 34.72216797 C39.49392068 39.21676681 41.33721305 43.70347126 43.1875 48.1875 C43.62425049 49.24638428 43.62425049 49.24638428 44.06982422 50.32666016 C44.71275218 51.88463165 45.35628924 53.44235177 46 55 C50.04399492 47.35394701 53.27499059 39.50576187 56.375 31.4375 C57.3361564 28.96181878 58.29839482 26.48655736 59.26171875 24.01171875 C59.72626465 22.81724121 60.19081055 21.62276367 60.66943359 20.39208984 C63.35141087 13.55477017 66.17524506 6.77941186 69 0 C76.59 0 84.18 0 92 0 C92 27.06 92 54.12 92 82 C85.73 82 79.46 82 73 82 C72.67 66.49 72.34 50.98 72 35 C66.8219879 48.97027495 66.8219879 48.97027495 61.64892578 62.94238281 C60.99790044 64.69603003 60.34670737 66.44961501 59.6953125 68.203125 C59.36007568 69.1111084 59.02483887 70.0190918 58.67944336 70.95458984 C58.35484131 71.82712402 58.03023926 72.6996582 57.69580078 73.59863281 C57.41600372 74.35364075 57.13620667 75.10864868 56.84793091 75.88653564 C56.01084584 77.97296679 55.00537618 79.98924764 54 82 C48.72 82 43.44 82 38 82 C36.56067914 78.21820397 35.12202333 74.43616291 33.68481445 70.65356445 C32.96567612 68.76162685 32.24555341 66.87006351 31.52539062 64.97851562 C27.61229 54.6766793 23.81027263 44.34216857 20 34 C19.67 49.84 19.34 65.68 19 82 C12.73 82 6.46 82 0 82 C0 54.94 0 27.88 0 0 Z " fill="#7BABCC" transform="translate(499,140)"/>
<path d="M0 0 C0.78052734 0.00773437 1.56105469 0.01546875 2.36523438 0.0234375 C3.53022461 0.01183594 3.53022461 0.01183594 4.71875 0 C8.62825605 0.01346944 10.60720469 0.05975105 13.92773438 2.2734375 C13.59773438 2.9334375 13.26773438 3.5934375 12.92773438 4.2734375 C12.26773438 4.2734375 11.60773438 4.2734375 10.92773438 4.2734375 C10.54488281 6.14322266 10.54488281 6.14322266 10.15429688 8.05078125 C8.88234846 13.76118363 7.11512666 19.27749671 5.30273438 24.8359375 C4.9537207 25.91496338 4.60470703 26.99398926 4.24511719 28.10571289 C3.14516895 31.49689171 2.03759566 34.88549109 0.92773438 38.2734375 C0.56776367 39.37526367 0.20779297 40.47708984 -0.16308594 41.61230469 C-1.21109227 44.81353968 -2.26515831 48.01269731 -3.32226562 51.2109375 C-3.6388916 52.17394775 -3.95551758 53.13695801 -4.28173828 54.12915039 C-6.05580988 59.45741211 -8.00767603 64.66707149 -10.12548828 69.86743164 C-11.63283674 73.69799354 -12.87494834 77.60602067 -14.13476562 81.5234375 C-17.17353896 90.80322492 -20.45926888 99.98253266 -23.82226562 109.1484375 C-24.17963303 110.12544617 -24.17963303 110.12544617 -24.54421997 111.12219238 C-26.03059806 115.18146089 -27.53950502 119.2314622 -29.07226562 123.2734375 C-29.36552734 124.05364258 -29.65878906 124.83384766 -29.9609375 125.63769531 C-31.30463116 129.02136024 -31.93725798 130.1834324 -35.07226562 132.2734375 C-38.57097368 132.61153825 -42.06423346 132.36356273 -45.57226562 132.2109375 C-46.53519531 132.19611328 -47.498125 132.18128906 -48.49023438 132.16601562 C-55.50908784 131.87723435 -55.50908784 131.87723435 -58.07617188 129.125 C-58.40488281 128.18398437 -58.73359375 127.24296875 -59.07226562 126.2734375 C-59.48347656 125.24089844 -59.8946875 124.20835937 -60.31835938 123.14453125 C-60.71152344 122.01144531 -61.1046875 120.87835938 -61.50976562 119.7109375 C-61.9403125 118.47730469 -62.37085938 117.24367188 -62.81445312 115.97265625 C-63.94011685 112.66208623 -65.0432111 109.34537312 -66.13476562 106.0234375 C-67.59529749 101.58905161 -69.24764806 97.28086987 -71.02099609 92.96386719 C-72.07841826 90.25769156 -72.99951915 87.53668822 -73.89648438 84.7734375 C-75.33814607 80.40630638 -76.85938553 76.0823098 -78.46679688 71.7734375 C-78.86447266 70.70222656 -79.26214844 69.63101563 -79.671875 68.52734375 C-80.49308286 66.32423218 -81.32142501 64.12376901 -82.15625 61.92578125 C-82.7430957 60.33443359 -82.7430957 60.33443359 -83.34179688 58.7109375 C-83.69862549 57.76089844 -84.0554541 56.81085938 -84.4230957 55.83203125 C-85.10173481 53.15728968 -85.00911732 51.83088091 -84.07226562 49.2734375 C-81.84316691 49.24629015 -79.61397195 49.22697496 -77.38476562 49.2109375 C-76.14339844 49.19933594 -74.90203125 49.18773437 -73.62304688 49.17578125 C-67.99248844 49.33063709 -67.99248844 49.33063709 -65.07226562 50.2734375 C-63.84960938 52.22851562 -63.84960938 52.22851562 -63.00976562 54.8046875 C-62.69064209 55.75174561 -62.37151855 56.69880371 -62.04272461 57.67456055 C-61.72247314 58.69718994 -61.40222168 59.71981934 -61.07226562 60.7734375 C-60.72687744 61.81991455 -60.38148926 62.8663916 -60.02563477 63.94458008 C-57.85981139 70.571807 -55.84521717 77.24257358 -53.9465332 83.95092773 C-51.39769442 92.85839182 -48.20636666 101.55854451 -45.07226562 110.2734375 C-40.53570487 103.46859636 -38.6267934 94.97972375 -36.27539062 87.20703125 C-34.73355612 82.13114975 -33.11867029 77.07837091 -31.50976562 72.0234375 C-31.21674561 71.10071045 -30.92372559 70.1779834 -30.62182617 69.22729492 C-27.52483356 59.50149827 -24.24170069 49.84987753 -20.88476562 40.2109375 C-18.46448539 33.2595687 -16.0683024 26.3031627 -13.77539062 19.30859375 C-13.41469482 18.20974854 -13.05399902 17.11090332 -12.68237305 15.97875977 C-11.99495683 13.87550002 -11.31265165 11.7705615 -10.63598633 9.66381836 C-10.32749756 8.72030518 -10.01900879 7.77679199 -9.70117188 6.8046875 C-9.43377197 5.97517578 -9.16637207 5.14566406 -8.89086914 4.29101562 C-7.04137171 -0.26736396 -4.53229122 0.01564207 0 0 Z " fill="#C1CE79" transform="translate(342.072265625,89.7265625)"/>
<path d="M0 0 C0.99 -2.64 1.98 -5.28 3 -8 C5.27057377 -8.05398987 7.54151288 -8.09278742 9.8125 -8.125 C11.07707031 -8.14820313 12.34164062 -8.17140625 13.64453125 -8.1953125 C17 -8 17 -8 20 -6 C20.36076355 -3.36776733 20.36076355 -3.36776733 20.34057617 0.01025391 C20.34034958 1.27141022 20.34012299 2.53256653 20.33988953 3.8319397 C20.32456844 5.21348421 20.30892044 6.59502513 20.29296875 7.9765625 C20.28737433 9.38617503 20.2831035 10.79579338 20.28010559 12.20541382 C20.26864454 15.91768464 20.23916704 19.629604 20.20599365 23.34173584 C20.1753196 27.12881719 20.16160599 30.91595526 20.14648438 34.703125 C20.11429803 42.13559554 20.06152041 49.56770378 20 57 C13.73 57 7.46 57 1 57 C1 54.36 1 51.72 1 49 C0.401875 49.66 -0.19625 50.32 -0.8125 51 C-3 53 -3 53 -6 53 C-6 53.66 -6 54.32 -6 55 C-13.37233163 58.46933253 -21.54980622 59.75646055 -29.47265625 57.203125 C-31.43066899 56.25156741 -33.20189237 55.2237735 -35 54 C-35.825 53.46375 -36.65 52.9275 -37.5 52.375 C-38.2425 51.694375 -38.2425 51.694375 -39 51 C-39 50.34 -39 49.68 -39 49 C-39.66 49 -40.32 49 -41 49 C-41.79831456 47.62884903 -42.5883061 46.25285116 -43.375 44.875 C-44.03628906 43.72644531 -44.03628906 43.72644531 -44.7109375 42.5546875 C-49.54247989 32.97944895 -49.17118944 21.54550429 -46.76953125 11.23046875 C-45.47496076 7.47818575 -43.61537143 4.00097106 -41 1 C-40.34 1 -39.68 1 -39 1 C-38.65001953 0.09314453 -38.65001953 0.09314453 -38.29296875 -0.83203125 C-35.40483265 -5.67467637 -28.76883721 -7.51758985 -23.5625 -8.9375 C-13.60508718 -9.11219145 -7.33111554 -6.76996842 0 0 Z M-27.875 15.6875 C-29.88036455 21.5921845 -29.62989791 26.86534596 -27.875 32.8125 C-25.33458031 37.13121348 -22.80111859 40.11297911 -17.890625 41.66796875 C-12.92641766 42.53242555 -9.09403426 41.96991425 -4.73046875 39.41796875 C-0.85968757 36.24619998 0.70648532 32.40456256 1.3046875 27.50390625 C1.44320898 22.44787213 1.24428893 17.57834942 -1 13 C-5.92025282 8.75803149 -11.26462916 7.15570908 -17.703125 7.515625 C-22.67324303 8.56374513 -25.01877372 11.59357566 -27.875 15.6875 Z " fill="#C1CE79" transform="translate(462,164)"/>
<path d="M0 0 C7.7155542 6.34390012 11.84690067 12.48450337 13.8125 22.3125 C13.8125 25.9425 13.8125 29.5725 13.8125 33.3125 C-1.3675 33.3125 -16.5475 33.3125 -32.1875 33.3125 C-29.19091307 41.66818198 -29.19091307 41.66818198 -25.9375 44.375 C-21.21011186 45.98660959 -17.03712982 45.82409974 -12.25 44.5 C-9.85618314 43.42582248 -9.85618314 43.42582248 -9.1875 40.3125 C-2.2575 40.3125 4.6725 40.3125 11.8125 40.3125 C9.49585917 48.42074289 7.08427886 52.42717568 0.140625 57.1171875 C-9.01694624 62.1805007 -18.94644675 63.88822482 -29.140625 61.0234375 C-37.99802792 57.94701129 -43.94770056 53.14595911 -48.578125 44.80859375 C-52.54348194 35.43973986 -52.72898731 24.85017132 -49.4375 15.25 C-45.59608566 6.2645464 -40.79153728 1.49531219 -32.0234375 -2.73046875 C-21.34989607 -6.86404025 -9.93912966 -5.26189217 0 0 Z M-30.1875 16.3125 C-30.5175 18.2925 -30.8475 20.2725 -31.1875 22.3125 C-22.9375 22.3125 -14.6875 22.3125 -6.1875 22.3125 C-7.1744461 17.37776949 -7.86496937 15.83047361 -11.1875 12.3125 C-18.65886585 9.82204472 -24.98665869 10.17817435 -30.1875 16.3125 Z " fill="#7BABCC" transform="translate(649.1875,160.6875)"/>
<path d="M0 0 C2.60131241 2.17784295 3.49950627 3.18475203 4.6875 6.25 C5.01342984 10.92166102 4.28036595 14.38764953 1.625 18.25 C-2.6210368 21.14091867 -6.19315589 21.25 -11.3125 21.25 C-12.64890611 22.79467683 -12.64890611 22.79467683 -13.96484375 24.84375 C-14.48836426 25.61871826 -15.01188477 26.39368652 -15.55126953 27.19213867 C-16.39214111 28.45828003 -16.39214111 28.45828003 -17.25 29.75 C-18.43336 31.5066679 -19.61695738 33.26317592 -20.80078125 35.01953125 C-21.3932666 35.90334473 -21.98575195 36.7871582 -22.59619141 37.69775391 C-25.0162135 41.29646102 -27.47456638 44.86808964 -29.9375 48.4375 C-30.82437786 49.72645304 -31.71109645 51.01551568 -32.59765625 52.3046875 C-33.50258634 53.61980393 -34.4075349 54.93490766 -35.3125 56.25 C-37.33361317 59.1873076 -39.3543863 62.1248488 -41.375 65.0625 C-41.8405127 65.73885498 -42.30602539 66.41520996 -42.78564453 67.11206055 C-47.58293333 73.72434598 -47.58293333 73.72434598 -47.6875 81.5625 C-46.99937957 88.83228992 -46.99937957 88.83228992 -49 91.9375 C-52.35288416 95.29038416 -53.95781851 96.09947983 -58.6875 96.625 C-63.0304218 96.17573223 -65.01923134 95.0837428 -68.3125 92.25 C-70.31559403 88.97220976 -70.31979062 87.32702694 -69.953125 83.453125 C-69.93890638 80.95633468 -70.02105194 79.66741605 -71.46142578 77.60449219 C-73.12883512 76.02517044 -74.85381138 74.63272001 -76.6875 73.25 C-77.33162842 72.7329248 -77.97575684 72.21584961 -78.6394043 71.68310547 C-80.51450404 70.18368024 -82.41079641 68.71542733 -84.3125 67.25 C-85.91834508 65.96042059 -87.52273766 64.66902816 -89.125 63.375 C-89.89714844 62.76914063 -90.66929687 62.16328125 -91.46484375 61.5390625 C-93.86552757 59.60929471 -96.21946604 57.64254293 -98.56640625 55.6484375 C-99.70662231 54.68719971 -99.70662231 54.68719971 -100.86987305 53.70654297 C-102.39489972 52.41911394 -103.91351001 51.12403916 -105.42504883 49.82080078 C-106.12782959 49.23024902 -106.83061035 48.63969727 -107.5546875 48.03125 C-108.1822998 47.49564453 -108.80991211 46.96003906 -109.45654297 46.40820312 C-113.03405888 44.17566755 -117.3476482 45.5016543 -121.3125 46.12890625 C-123.3125 46.25 -123.3125 46.25 -125.3359375 45.57421875 C-127.41600396 44.99395127 -127.41600396 44.99395127 -129.1640625 46.578125 C-129.74929688 47.21234375 -130.33453125 47.8465625 -130.9375 48.5 C-131.52789063 49.12390625 -132.11828125 49.7478125 -132.7265625 50.390625 C-134.47653303 52.36830129 -134.47653303 52.36830129 -136.3125 55.25 C-136.9725 55.25 -137.6325 55.25 -138.3125 55.25 C-138.56104736 55.83104492 -138.80959473 56.41208984 -139.06567383 57.01074219 C-140.4928569 59.57391491 -142.08834502 61.11271661 -144.26171875 63.078125 C-145.02677734 63.79613281 -145.79183594 64.51414062 -146.58007812 65.25390625 C-148.19192675 66.74997236 -149.81703148 68.23188341 -151.45507812 69.69921875 C-155.67614499 73.40246737 -155.67614499 73.40246737 -157.55078125 78.4284668 C-157.25147725 80.38968363 -156.7874872 82.32377532 -156.3125 84.25 C-157.3321418 88.36167244 -159.43828226 91.42573756 -162.5 94.3125 C-166.65114631 95.69621544 -170.12575547 95.46354914 -174.3125 94.25 C-177.41604599 92.18096934 -178.8910371 90.70404702 -179.9375 87.09375 C-180.53763023 83.34293606 -180.58918243 80.91986272 -179.125 77.375 C-176.41532525 74.19813994 -174.49947921 72.58545065 -170.4375 71.4375 C-166.91044591 71.22587675 -164.56474359 71.93361569 -161.3125 73.25 C-160.8175 71.765 -160.8175 71.765 -160.3125 70.25 C-159.6525 70.25 -158.9925 70.25 -158.3125 70.25 C-158.09480957 69.69763672 -157.87711914 69.14527344 -157.65283203 68.57617188 C-155.88486573 65.50783254 -153.4616015 63.38385444 -150.8671875 61.03125 C-149.77844687 60.00680125 -148.69125466 58.98070486 -147.60546875 57.953125 C-145.90278309 56.34886897 -144.19408961 54.75594087 -142.45654297 53.18945312 C-135.40020743 47.11419175 -135.40020743 47.11419175 -131.6328125 38.92041016 C-131.61595697 35.73969739 -131.61595697 35.73969739 -132.06591797 32.78955078 C-132.33689881 29.9987164 -132.07051225 28.94110026 -130.5625 26.625 C-127.28456569 23.16495823 -125.68098738 22.40205415 -120.9375 21.875 C-116.61953393 22.32168615 -114.61923452 23.4815711 -111.3125 26.25 C-109.38944498 29.27199993 -109.22389199 31.06239815 -109.67578125 34.5625 C-109.73567158 37.46095463 -109.65015814 38.79588785 -107.90380859 41.14453125 C-105.85153812 42.99100157 -103.73438204 44.62872489 -101.5 46.25 C-100.72188965 46.85030029 -99.9437793 47.45060059 -99.14208984 48.0690918 C-97.58736683 49.26806764 -96.0246411 50.45674675 -94.45361328 51.63427734 C-91.71345239 53.70205212 -89.0774254 55.86832619 -86.4375 58.0625 C-85.59316406 58.75214844 -84.74882813 59.44179687 -83.87890625 60.15234375 C-82.03063945 61.66302757 -80.18454748 63.17637362 -78.33984375 64.69140625 C-77.36144531 65.49449219 -76.38304687 66.29757813 -75.375 67.125 C-74.49972656 67.84429687 -73.62445312 68.56359375 -72.72265625 69.3046875 C-71.92730469 69.94664063 -71.13195312 70.58859375 -70.3125 71.25 C-69.33796875 72.11625 -69.33796875 72.11625 -68.34375 73 C-64.69648759 75.24446917 -61.59275944 74.54273368 -57.53125 73.734375 C-51.31706336 70.86860932 -48.22540792 64.99244676 -44.66259766 59.36425781 C-42.94263222 56.67078573 -41.11938682 54.05787501 -39.2890625 51.4387207 C-37.44595591 48.79491481 -35.63506476 46.12963892 -33.82177734 43.46533203 C-32.15207413 41.01452534 -30.47687072 38.5675371 -28.80078125 36.12109375 C-26.5212667 32.79356227 -24.24198609 29.46587422 -21.96484375 26.13671875 C-21.50070068 25.45826904 -21.03655762 24.77981934 -20.55834961 24.08081055 C-17.57169235 19.69183489 -17.21940309 18.21368661 -17.9375 12.9375 C-18.62562043 5.66771008 -18.62562043 5.66771008 -16.625 2.5625 C-11.61769232 -2.44480768 -6.49504991 -3.43134712 0 0 Z " fill="#83AAC3" transform="translate(936.3125,56.75)"/>
<path d="M0 0 C6.17619641 4.90928433 8.22467048 10.48095733 10 18 C4.06 18 -1.88 18 -8 18 C-8.66 16.68 -9.32 15.36 -10 14 C-13.6468534 11.54049422 -15.44681723 10.95538849 -19.875 11.3125 C-21.421875 11.6528125 -21.421875 11.6528125 -23 12 C-23.99 14.475 -23.99 14.475 -25 17 C-22.73364638 19.60743309 -20.97524191 20.53567328 -17.6484375 21.39453125 C-16.80079834 21.62462891 -15.95315918 21.85472656 -15.07983398 22.09179688 C-13.74094116 22.44854492 -13.74094116 22.44854492 -12.375 22.8125 C-3.86719226 25.23053244 3.56549542 27.42066056 9.0625 34.75 C10.58496004 40.02786148 11.12323946 45.00989496 9.15625 50.24609375 C5.80596737 56.2335921 1.0769454 59.76200863 -5.45703125 61.74609375 C-15.23028825 63.92293287 -25.32542822 63.94406156 -34.1875 58.8125 C-39.57420288 55.16760524 -44.22462171 50.39136186 -46 44 C-46 43.01 -46 42.02 -46 41 C-39.73 41 -33.46 41 -27 41 C-26.34 42.65 -25.68 44.3 -25 46 C-20.98115052 48.04961324 -16.86813489 48.15502409 -12.5 47.375 C-9.90595319 46.23946698 -9.90595319 46.23946698 -8.9375 44.0625 C-8.79718525 41.9469028 -8.79718525 41.9469028 -10.20019531 40.47412109 C-12.36421295 38.70169319 -14.17296565 38.11788765 -16.859375 37.3515625 C-18.28636719 36.92617187 -18.28636719 36.92617187 -19.7421875 36.4921875 C-21.73089274 35.91882054 -23.72046618 35.34845555 -25.7109375 34.78125 C-32.95606671 32.61356983 -38.99733785 30.48850827 -42.9375 23.625 C-44.93121801 16.82290326 -44.25313937 12.27391164 -41 6 C-37.54796943 0.29087252 -32.25023555 -1.68216516 -26.09765625 -3.58984375 C-17.1911803 -5.33133346 -7.93845654 -4.48915913 0 0 Z " fill="#7BABCC" transform="translate(897,160)"/>
<path d="M0 0 C6.31943229 5.26814041 9.51972323 10.43742656 11.67578125 18.38671875 C8.25956337 18.53211828 4.84414134 18.620816 1.42578125 18.69921875 C0.45769531 18.74111328 -0.51039063 18.78300781 -1.5078125 18.82617188 C-8.73945395 18.95085535 -8.73945395 18.95085535 -11.87109375 15.9296875 C-12.350625 15.09050781 -12.83015625 14.25132812 -13.32421875 13.38671875 C-16.79227918 11.65268853 -20.53229085 11.9209283 -24.32421875 12.38671875 C-27.62460511 14.21246439 -28.92756303 15.61229567 -30.63671875 18.94921875 C-32.15731535 26.55220176 -32.29134494 33.585931 -28.32421875 40.38671875 C-26.4238231 42.6525751 -25.13669139 43.25105259 -22.2421875 43.734375 C-17.74489848 44.02524444 -15.92615004 43.87578792 -12.32421875 40.94921875 C-11.66421875 40.10359375 -11.00421875 39.25796875 -10.32421875 38.38671875 C-9.32421875 37.38671875 -9.32421875 37.38671875 -7.28295898 37.27319336 C-5.97113647 37.28104858 -5.97113647 37.28104858 -4.6328125 37.2890625 C-3.68857422 37.29228516 -2.74433594 37.29550781 -1.77148438 37.29882812 C-0.77826172 37.30720703 0.21496094 37.31558594 1.23828125 37.32421875 C2.23537109 37.32873047 3.23246094 37.33324219 4.25976562 37.33789062 C6.73182974 37.34971868 9.20377643 37.36620026 11.67578125 37.38671875 C8.54710081 46.52573072 4.69832806 53.3902838 -3.88671875 58.32421875 C-11.84107136 61.91337785 -21.74241426 62.60467029 -30.171875 60.234375 C-39.63455947 56.50769164 -45.8620435 50.98280393 -50.13671875 41.76171875 C-53.59634158 31.92910651 -53.25285247 22.01108249 -49.32421875 12.38671875 C-45.21522712 3.92791546 -39.16312897 -1.50329432 -30.32421875 -4.61328125 C-19.75735638 -7.0975436 -9.07577236 -6.29965375 0 0 Z " fill="#7AABCC" transform="translate(836.32421875,161.61328125)"/>
<path d="M0 0 C6.6 0 13.2 0 20 0 C20 5.28 20 10.56 20 16 C24.29 16 28.58 16 33 16 C33 21.28 33 26.56 33 32 C28.71 32 24.42 32 20 32 C20.11980059 36.09361158 20.24240711 40.18698478 20.37231445 44.28027344 C20.41565846 45.6731259 20.45733396 47.06603131 20.49731445 48.45898438 C20.55502932 50.45976651 20.61921869 52.46035859 20.68359375 54.4609375 C20.72025146 55.66540527 20.75690918 56.86987305 20.79467773 58.11083984 C20.81052987 60.93996367 20.81052987 60.93996367 22 63 C25.65149561 63.60383547 29.30350275 63.74506916 33 64 C33 69.61 33 75.22 33 81 C12.4889671 81.55435224 12.4889671 81.55435224 5.5625 75.125 C1.11696252 70.48948228 0.68533504 65.25172833 0.5859375 59.07421875 C0.56657135 58.32662796 0.5472052 57.57903717 0.5272522 56.80879211 C0.46776082 54.43514194 0.42119408 52.06144246 0.375 49.6875 C0.33679211 48.07224518 0.29773875 46.45701013 0.2578125 44.84179688 C0.1620847 40.8946929 0.07794233 36.94749361 0 33 C-2.31 32.67 -4.62 32.34 -7 32 C-7 26.72 -7 21.44 -7 16 C-3.535 15.505 -3.535 15.505 0 15 C0 10.05 0 5.1 0 0 Z " fill="#7AABCC" transform="translate(672,141)"/>
<path d="M0 0 C1.051875 -0.00257813 2.10375 -0.00515625 3.1875 -0.0078125 C6 0.125 6 0.125 9 1.125 C9.495 9.045 9.495 9.045 10 17.125 C13.3203125 16.63671875 13.3203125 16.63671875 16.640625 16.1484375 C19.32152459 16.12180605 20.72694089 16.75907916 23 18.125 C23.02685938 20.27076637 23.04633088 22.41662645 23.0625 24.5625 C23.07410156 25.75746094 23.08570313 26.95242187 23.09765625 28.18359375 C23 31.125 23 31.125 22 32.125 C19.98405418 32.35927778 17.961526 32.53836124 15.9375 32.6875 C14.83277344 32.77128906 13.72804688 32.85507813 12.58984375 32.94140625 C11.73519531 33.00199219 10.88054687 33.06257813 10 33.125 C9.94195719 37.54161151 9.90638896 41.95812496 9.875 46.375 C9.85824219 47.62925781 9.84148437 48.88351563 9.82421875 50.17578125 C9.81777344 51.38105469 9.81132812 52.58632812 9.8046875 53.828125 C9.79421387 54.93833008 9.78374023 56.04853516 9.77294922 57.19238281 C9.9969586 60.08571685 10.37595381 61.74067902 12 64.125 C14.11949501 64.78839065 14.11949501 64.78839065 16.5 64.8125 C20.87179487 65.06089744 20.87179487 65.06089744 23 66.125 C23.02685412 68.43743792 23.04632841 70.7499627 23.0625 73.0625 C23.07410156 74.35027344 23.08570313 75.63804687 23.09765625 76.96484375 C23 80.125 23 80.125 22 81.125 C4.31991347 82.40891105 4.31991347 82.40891105 -3 77.125 C-7.0287526 73.38889287 -8.89262564 70.03130991 -9.20532227 64.47973633 C-9.2470509 62.97229076 -9.28376658 61.464701 -9.31640625 59.95703125 C-9.33718735 59.16221848 -9.35796844 58.3674057 -9.37937927 57.54850769 C-9.44472087 55.01159237 -9.50368808 52.47457427 -9.5625 49.9375 C-9.60569986 48.21678628 -9.64931463 46.49608292 -9.69335938 44.77539062 C-9.80038648 40.55869887 -9.90169724 36.3419038 -10 32.125 C-11.7015625 32.1559375 -11.7015625 32.1559375 -13.4375 32.1875 C-17 32.125 -17 32.125 -18 31.125 C-18.07271741 28.77186445 -18.08370868 26.41666332 -18.0625 24.0625 C-18.05347656 22.77214844 -18.04445313 21.48179687 -18.03515625 20.15234375 C-18.02355469 19.15332031 -18.01195312 18.15429688 -18 17.125 C-15.36 16.465 -12.72 15.805 -10 15.125 C-9.67 10.505 -9.34 5.885 -9 1.125 C-5.77717587 0.05072529 -3.38488847 -0.0082963 0 0 Z " fill="#C1CE78" transform="translate(387,139.875)"/>
<path d="M0 0 C0 6.93 0 13.86 0 21 C-4.83398438 21.5859375 -4.83398438 21.5859375 -9.66796875 22.171875 C-13.40634803 23.10099154 -15.27511779 24.30998832 -18 27 C-19.24473532 30.73420597 -19.23209785 34.27365238 -19.31640625 38.16796875 C-19.33718735 38.96278152 -19.35796844 39.7575943 -19.37937927 40.57649231 C-19.44472087 43.11340763 -19.50368808 45.65042573 -19.5625 48.1875 C-19.60569986 49.90821372 -19.64931463 51.62891708 -19.69335938 53.34960938 C-19.80116677 57.56630247 -19.9003542 61.78307451 -20 66 C-26.6 66 -33.2 66 -40 66 C-39.67 44.55 -39.34 23.1 -39 1 C-32.73 1 -26.46 1 -20 1 C-19.67 3.97 -19.34 6.94 -19 10 C-18.52691406 9.52949219 -18.05382812 9.05898437 -17.56640625 8.57421875 C-12.54833866 3.8496054 -7.17692376 0 0 0 Z " fill="#7BABCB" transform="translate(752,156)"/>
<path d="M0 0 C6.27 0 12.54 0 19 0 C20.77711309 1.77711309 20.127645 4.3692858 20.12939453 6.77319336 C20.13254669 8.00794907 20.13569885 9.24270477 20.13894653 10.51487732 C20.13715655 11.87319982 20.13510555 13.231522 20.1328125 14.58984375 C20.13348566 15.97367876 20.13445579 17.35751366 20.13571167 18.74134827 C20.13718856 21.64585492 20.1350347 24.55033089 20.13037109 27.45483398 C20.12467911 31.18196786 20.12794948 34.90902964 20.13394356 38.63616085 C20.13755394 41.49541265 20.13640829 44.35464731 20.13381577 47.21389961 C20.13314754 48.58825247 20.13397128 49.96260687 20.13629532 51.33695793 C20.13882901 53.25710903 20.13428392 55.17726556 20.12939453 57.09741211 C20.12859894 58.19137802 20.12780334 59.28534393 20.12698364 60.41246033 C20 63 20 63 19 65 C12.73 65 6.46 65 0 65 C0 43.55 0 22.1 0 0 Z " fill="#7BABCD" transform="translate(758,157)"/>
<path d="M0 0 C1.72089844 0.02126953 1.72089844 0.02126953 3.4765625 0.04296875 C5.18972656 0.05263672 5.18972656 0.05263672 6.9375 0.0625 C10.1015625 0.23046875 10.1015625 0.23046875 14.1015625 1.23046875 C14.1015625 22.35046875 14.1015625 43.47046875 14.1015625 65.23046875 C8.1615625 65.23046875 2.2215625 65.23046875 -3.8984375 65.23046875 C-5.67531395 63.4535923 -5.03531722 60.86167621 -5.04370117 58.45727539 C-5.05008102 57.22251968 -5.05646088 55.98776398 -5.06303406 54.71559143 C-5.06456262 53.35726968 -5.06567664 51.99894741 -5.06640625 50.640625 C-5.0696172 49.2567898 -5.07298115 47.87295495 -5.07649231 46.48912048 C-5.08248974 43.58461724 -5.08433159 40.68014377 -5.08374023 37.77563477 C-5.08363859 34.04844729 -5.09729022 30.32145022 -5.11451244 26.5943079 C-5.1256153 23.73505267 -5.12765997 20.87584372 -5.12713051 18.01656914 C-5.12831324 16.64220969 -5.13275138 15.26784914 -5.14046288 13.89351082 C-5.15022748 11.97338423 -5.14612965 10.05320213 -5.14135742 8.13305664 C-5.14278244 7.03909073 -5.14420746 5.94512482 -5.14567566 4.81800842 C-4.78050188 0.99618073 -3.78128055 0.30066786 0 0 Z " fill="#C1CE79" transform="translate(348.8984375,155.76953125)"/>
<path d="M0 0 C2.96441013 1.26145112 4.43744933 2.22314432 6.3125 4.8125 C7.58476509 8.86061621 7.50914951 11.87987109 5.75 15.75 C3.85985126 18.18019123 2.82298867 18.88776241 0 20 C-2.5078125 20.23046875 -2.5078125 20.23046875 -5.125 20.1875 C-5.99382812 20.18105469 -6.86265625 20.17460937 -7.7578125 20.16796875 C-10 20 -10 20 -12 19 C-12 18.34 -12 17.68 -12 17 C-12.66 17 -13.32 17 -14 17 C-15.79840245 13.1783948 -16.61508797 10.2177461 -16 6 C-11.04085474 0.12732798 -7.40416729 -0.71735877 0 0 Z " fill="#C1CE78" transform="translate(358,128)"/>
<path d="M0 0 C0 0.99 0 1.98 0 3 C0.99 3.33 1.98 3.66 3 4 C4.94070371 7.88140743 4.3732542 11.85535379 3.0625 15.875 C0.32607025 18.69435186 -1.71711643 18.98789789 -5.57421875 19.18359375 C-9.688186 18.87223069 -13.00686619 17.93235952 -16 15 C-17.42881152 11.13796491 -17.66679398 7.62387328 -16.09375 3.79296875 C-14.63299761 1.39837823 -13.66317466 0.91108607 -11 0 C-7.0973172 -0.75688394 -3.85335515 -1.28445172 0 0 Z " fill="#7AACCC" transform="translate(885,132)"/>
<path d="M0 0 C3.61752739 5.66221678 3.69040043 11.40232633 4 18 C1.56288386 18.19484938 -0.87437398 18.38115178 -3.3125 18.5625 C-4.00279297 18.61857422 -4.69308594 18.67464844 -5.40429688 18.73242188 C-8.62512274 18.96581505 -10.90327345 19.03224218 -14 18 C-15.84650032 14.30699937 -15.14972916 9.7967499 -14.8125 5.75 C-11.78865626 -0.7628942 -6.21126513 -0.48715805 0 0 Z " fill="#7AABCD" transform="translate(821,81)"/>
<path d="M0 0 C2.5625 2.6875 2.5625 2.6875 4 6 C3.28438563 9.97563538 1.80955521 13.07806259 -1 16 C-1.99 16 -2.98 16 -4 16 C-4 16.66 -4 17.32 -4 18 C-5.43739513 18.02712066 -6.87493863 18.04645067 -8.3125 18.0625 C-9.51326172 18.07990234 -9.51326172 18.07990234 -10.73828125 18.09765625 C-13 18 -13 18 -16 17 C-16.57296815 10.67188505 -16.40165875 6.41575608 -12.484375 1.27734375 C-8.80605622 -1.88794636 -4.42922404 -1.1863993 0 0 Z " fill="#7AACCD" transform="translate(936,58)"/>
<path d="M0 0 C6.27 0 12.54 0 19 0 C20.77711309 1.77711309 20.127645 4.3692858 20.12939453 6.77319336 C20.13254669 8.00794907 20.13569885 9.24270477 20.13894653 10.51487732 C20.13715655 11.87319982 20.13510555 13.231522 20.1328125 14.58984375 C20.13348566 15.97367876 20.13445579 17.35751366 20.13571167 18.74134827 C20.13718856 21.64585492 20.1350347 24.55033089 20.13037109 27.45483398 C20.12467911 31.18196786 20.12794948 34.90902964 20.13394356 38.63616085 C20.13755394 41.49541265 20.13640829 44.35464731 20.13381577 47.21389961 C20.13314754 48.58825247 20.13397128 49.96260687 20.13629532 51.33695793 C20.13882901 53.25710903 20.13428392 55.17726556 20.12939453 57.09741211 C20.12859894 58.19137802 20.12780334 59.28534393 20.12698364 60.41246033 C20 63 20 63 19 65 C12.73 65 6.46 65 0 65 C0 43.55 0 22.1 0 0 Z M1 2 C0.90134814 3.60953564 0.87201193 5.22338202 0.87060547 6.8359375 C0.86745331 7.8679126 0.86430115 8.8998877 0.86105347 9.96313477 C0.8630777 11.08905029 0.86510193 12.21496582 0.8671875 13.375 C0.86623077 14.52863037 0.86527405 15.68226074 0.86428833 16.87084961 C0.86360586 19.32226618 0.86546474 21.77368453 0.86962891 24.22509766 C0.87493753 27.95609685 0.86970633 31.68697352 0.86328125 35.41796875 C0.86394278 37.79947943 0.86522549 40.18099004 0.8671875 42.5625 C0.86516327 43.67222168 0.86313904 44.78194336 0.86105347 45.92529297 C0.8792661 52.03356602 1.19998522 57.94308575 2 64 C4.47960136 63.85975781 6.95852402 63.7130815 9.4375 63.5625 C10.14455078 63.52318359 10.85160156 63.48386719 11.58007812 63.44335938 C15.08690419 63.52375562 15.08690419 63.52375562 18 62 C18.09386381 60.1281906 18.11743804 58.2528194 18.11352539 56.37866211 C18.11344986 55.17749252 18.11337433 53.97632294 18.11329651 52.73875427 C18.10813522 51.4314888 18.10297394 50.12422333 18.09765625 48.77734375 C18.09579198 47.43355868 18.09436812 46.08977293 18.09336853 44.74598694 C18.08954402 41.20317723 18.07971432 37.6604083 18.06866455 34.11761475 C18.05844899 30.50484773 18.0538706 26.89207416 18.04882812 23.27929688 C18.03809198 16.1861812 18.02101636 9.09309326 18 2 C15.01316593 0.50658297 12.25600226 0.86824822 8.9375 0.875 C7.66777344 0.87242187 6.39804687 0.86984375 5.08984375 0.8671875 C2.12899299 0.64564416 2.12899299 0.64564416 1 2 Z " fill="#8CABC1" transform="translate(758,157)"/>
<path d="M0 0 C1.051875 -0.00257813 2.10375 -0.00515625 3.1875 -0.0078125 C6 0.125 6 0.125 9 1.125 C9.495 9.045 9.495 9.045 10 17.125 C9.34 17.125 8.68 17.125 8 17.125 C7.67 12.175 7.34 7.225 7 2.125 C2.05 2.125 -2.9 2.125 -8 2.125 C-8 6.745 -8 11.365 -8 16.125 C-8.66 15.465 -9.32 14.805 -10 14.125 C-9.9765625 11.0859375 -9.9765625 11.0859375 -9.625 7.5 C-9.51414062 6.31148437 -9.40328125 5.12296875 -9.2890625 3.8984375 C-9.19367188 2.98320312 -9.09828125 2.06796875 -9 1.125 C-5.77717587 0.05072529 -3.38488847 -0.0082963 0 0 Z M-9 16.125 C-9 16.785 -9 17.445 -9 18.125 C-10.65 18.125 -12.3 18.125 -14 18.125 C-14.33 22.085 -14.66 26.045 -15 30.125 C-14.34 30.125 -13.68 30.125 -13 30.125 C-12.67 29.465 -12.34 28.805 -12 28.125 C-12 28.785 -12 29.445 -12 30.125 C-10.68 30.125 -9.36 30.125 -8 30.125 C-7.2308053 34.1812678 -6.89858487 37.95695301 -6.97265625 42.08203125 C-6.98490234 43.19513672 -6.99714844 44.30824219 -7.00976562 45.45507812 C-7.04474541 47.76503939 -7.08376664 50.07494321 -7.12695312 52.38476562 C-7.19150547 58.96530714 -6.89705511 64.79927966 -5 71.125 C-4.34 71.455 -3.68 71.785 -3 72.125 C-2.375 74.6875 -2.375 74.6875 -2 77.125 C-7.24591636 72.1551845 -9.17692674 69.51204917 -9.37905884 62.18304443 C-9.39061005 61.41623352 -9.40216125 60.64942261 -9.4140625 59.859375 C-9.43342865 59.06597717 -9.4527948 58.27257935 -9.4727478 57.45513916 C-9.53238361 54.92853443 -9.57886443 52.40188375 -9.625 49.875 C-9.66319455 48.15883463 -9.70224715 46.44268813 -9.7421875 44.7265625 C-9.83807186 40.52619544 -9.92216167 36.32573866 -10 32.125 C-11.7015625 32.1559375 -11.7015625 32.1559375 -13.4375 32.1875 C-17 32.125 -17 32.125 -18 31.125 C-18.07271741 28.77186445 -18.08370868 26.41666332 -18.0625 24.0625 C-18.05347656 22.77214844 -18.04445313 21.48179687 -18.03515625 20.15234375 C-18.02355469 19.15332031 -18.01195312 18.15429688 -18 17.125 C-14.90226756 16.28437603 -12.21667249 16.03564799 -9 16.125 Z " fill="#C1CB88" transform="translate(387,139.875)"/>
<path d="M0 0 C7.59 0 15.18 0 23 0 C28.125 10.625 28.125 10.625 27 14 C25 13 25 13 24.1484375 10.71484375 C23.89320313 9.79832031 23.63796875 8.88179687 23.375 7.9375 C23.11460937 7.01839844 22.85421875 6.09929687 22.5859375 5.15234375 C22.39257812 4.44207031 22.19921875 3.73179687 22 3 C19.95999027 2.77602267 17.91783811 2.57151463 15.875 2.375 C14.73804688 2.25898438 13.60109375 2.14296875 12.4296875 2.0234375 C8.81600391 1.99874262 6.32347147 2.62919129 3 4 C1.10009993 5.89990007 1.87216059 9.2642003 1.87060547 11.78295898 C1.86885315 12.49190308 1.86710083 13.20084717 1.86529541 13.93127441 C1.86087664 16.28623874 1.86381527 18.64112859 1.8671875 20.99609375 C1.86651439 22.62655146 1.86554431 24.25700907 1.86428833 25.88746643 C1.86281126 29.30983431 1.86496591 32.73217615 1.86962891 36.15454102 C1.8753217 40.54754686 1.8720501 44.94049155 1.86605644 49.33349514 C1.86244722 52.70230065 1.86359116 56.0710916 1.86618423 59.43989754 C1.86685274 61.05986602 1.86602775 62.67983582 1.86370468 64.29980278 C1.86117275 66.56245307 1.86502661 68.82500365 1.87060547 71.08764648 C1.87140106 72.37702621 1.87219666 73.66640594 1.87301636 74.99485779 C1.79154368 77.92396582 1.79154368 77.92396582 3 80 C7.62 79.67 12.24 79.34 17 79 C17.33 74.38 17.66 69.76 18 65 C18.33 65 18.66 65 19 65 C19 70.61 19 76.22 19 82 C12.73 82 6.46 82 0 82 C0 54.94 0 27.88 0 0 Z " fill="#87A8BE" transform="translate(499,140)"/>
<path d="M0 0 C1.72089844 0.02126953 1.72089844 0.02126953 3.4765625 0.04296875 C5.18972656 0.05263672 5.18972656 0.05263672 6.9375 0.0625 C10.1015625 0.23046875 10.1015625 0.23046875 14.1015625 1.23046875 C14.1015625 22.35046875 14.1015625 43.47046875 14.1015625 65.23046875 C8.1615625 65.23046875 2.2215625 65.23046875 -3.8984375 65.23046875 C-5.67531395 63.4535923 -5.03531722 60.86167621 -5.04370117 58.45727539 C-5.05008102 57.22251968 -5.05646088 55.98776398 -5.06303406 54.71559143 C-5.06456262 53.35726968 -5.06567664 51.99894741 -5.06640625 50.640625 C-5.0696172 49.2567898 -5.07298115 47.87295495 -5.07649231 46.48912048 C-5.08248974 43.58461724 -5.08433159 40.68014377 -5.08374023 37.77563477 C-5.08363859 34.04844729 -5.09729022 30.32145022 -5.11451244 26.5943079 C-5.1256153 23.73505267 -5.12765997 20.87584372 -5.12713051 18.01656914 C-5.12831324 16.64220969 -5.13275138 15.26784914 -5.14046288 13.89351082 C-5.15022748 11.97338423 -5.14612965 10.05320213 -5.14135742 8.13305664 C-5.14278244 7.03909073 -5.14420746 5.94512482 -5.14567566 4.81800842 C-4.78050188 0.99618073 -3.78128055 0.30066786 0 0 Z M-3.8984375 3.23046875 C-3.99235046 5.13290637 -4.01587408 7.03885334 -4.01196289 8.94360352 C-4.01188736 10.16479385 -4.01181183 11.38598419 -4.01173401 12.6441803 C-4.00662661 13.98674561 -4.00141061 15.3293105 -3.99609375 16.671875 C-3.99422949 18.03808033 -3.99280563 19.40428632 -3.99180603 20.77049255 C-3.98798144 24.3724857 -3.97815167 27.97443875 -3.96710205 31.57641602 C-3.95688666 35.2495062 -3.95230814 38.92260284 -3.94726562 42.59570312 C-3.93652934 49.80730998 -3.91945364 57.01888375 -3.8984375 64.23046875 C-1.79434111 64.25748283 0.30985428 64.27687098 2.4140625 64.29296875 C3.58582031 64.30457031 4.75757813 64.31617188 5.96484375 64.328125 C9.13215445 64.37946773 9.13215445 64.37946773 12.1015625 63.23046875 C13.13134308 60.14112701 13.22833469 58.01822282 13.23095703 54.78100586 C13.23410919 53.66652573 13.23726135 52.55204559 13.24050903 51.40379333 C13.2384848 50.20061966 13.23646057 48.99744598 13.234375 47.7578125 C13.23533173 46.52382217 13.23628845 45.28983185 13.23727417 44.01844788 C13.23812961 40.73947393 13.23410075 37.46054726 13.22851562 34.18157959 C13.226563 32.16848241 13.22851048 30.15542877 13.23193359 28.14233398 C13.23809135 24.28497273 13.23736798 20.42767639 13.234375 16.5703125 C13.23639923 15.36511459 13.23842346 14.15991669 13.24050903 12.91819763 C13.23735687 11.80686966 13.23420471 10.69554169 13.23095703 9.55053711 C13.23016144 8.56919296 13.22936584 7.58784882 13.22854614 6.57676697 C13.256561 4.20861271 13.256561 4.20861271 12.1015625 2.23046875 C9.62232449 2.2036178 7.1433741 2.18370328 4.6640625 2.16796875 C3.95701172 2.15958984 3.24996094 2.15121094 2.52148438 2.14257812 C-0.97847379 1.7974957 -0.97847379 1.7974957 -3.8984375 3.23046875 Z " fill="#C2CB8B" transform="translate(348.8984375,155.76953125)"/>
<path d="M0 0 C0.99 0 1.98 0 3 0 C0.68182086 8.60961572 -2.51785458 16.86459956 -5.72558594 25.17089844 C-6.63325659 27.52138107 -7.53581123 29.87377937 -8.4375 32.2265625 C-9.01273074 33.7240698 -9.58824121 35.22146968 -10.1640625 36.71875 C-10.43384918 37.42076538 -10.70363586 38.12278076 -10.9815979 38.84606934 C-12.88205754 43.76411507 -12.88205754 43.76411507 -14 46 C-19.28 46 -24.56 46 -30 46 C-31.33735614 42.5431732 -32.67004741 39.08467398 -34 35.625 C-34.3815625 34.64015625 -34.763125 33.6553125 -35.15625 32.640625 C-35.5171875 31.69960937 -35.878125 30.75859375 -36.25 29.7890625 C-36.58515625 28.91975098 -36.9203125 28.05043945 -37.265625 27.15478516 C-38 25 -38 25 -38 23 C-37.34 23 -36.68 23 -36 23 C-36 23.99 -36 24.98 -36 26 C-35.34 26 -34.68 26 -34 26 C-33.75765625 26.97582031 -33.5153125 27.95164063 -33.265625 28.95703125 C-32.93046875 30.22933594 -32.5953125 31.50164062 -32.25 32.8125 C-31.92515625 34.07707031 -31.6003125 35.34164062 -31.265625 36.64453125 C-29.94189416 40.15405222 -29.29992547 41.33501028 -26 43 C-22.91938329 43.64068285 -20.0885843 43.60121297 -17 43 C-14.95464586 41.13069417 -14.95464586 41.13069417 -14 38 C-13.33437598 36.35374471 -12.66761112 34.70795045 -12 33.0625 C-11.66226563 32.18851563 -11.32453125 31.31453125 -10.9765625 30.4140625 C-10 28 -10 28 -8.375 24.9375 C-6.56720959 21.0754023 -5.78829091 17.17330484 -5 13 C-4.34 13 -3.68 13 -3 13 C-3.04125 12.236875 -3.0825 11.47375 -3.125 10.6875 C-3 8 -3 8 -1 5 C-0.61500109 3.34450469 -0.27206865 1.6777567 0 0 Z " fill="#88AABF" transform="translate(567,176)"/>
<path d="M0 0 C1 3 1 3 -0.4140625 6.02734375 C-2.60656022 10.7860888 -2.44036075 15.40263183 -2.375 20.5625 C-2.39240234 21.94211914 -2.39240234 21.94211914 -2.41015625 23.34960938 C-2.38714211 28.68505483 -1.91199927 32.36886863 1 37 C1.38800781 37.66386719 1.77601563 38.32773438 2.17578125 39.01171875 C4.93161965 43.07444959 7.30470715 45.14372143 12 47 C12 47.66 12 48.32 12 49 C21.57910355 51.597723 31.23639588 51.81648449 41 50 C41 49.34 41 48.68 41 48 C41.78375 47.9175 42.5675 47.835 43.375 47.75 C46.14749104 47.27193661 46.14749104 47.27193661 47.3125 44.9375 C47.539375 44.298125 47.76625 43.65875 48 43 C48.99 43.66 49.98 44.32 51 45 C49.60823368 45.96423026 48.2113777 46.92111602 46.8125 47.875 C46.03519531 48.40867188 45.25789062 48.94234375 44.45703125 49.4921875 C36.97391031 54.08437301 27.7648082 54.99812752 19.1875 53.3125 C10.25910866 50.80342652 4.36008607 46.69622978 -1 39 C-5.9577252 30.07330939 -6.69705674 19.4914323 -4.12890625 9.66796875 C-2.93620481 6.33452114 -1.58213892 3.16427784 0 0 Z " fill="#87A9BF" transform="translate(603,169)"/>
<path d="M0 0 C0.33 0 0.66 0 1 0 C1.02505615 0.83772949 1.0501123 1.67545898 1.07592773 2.53857422 C1.17100357 5.64352256 1.27024025 8.74830181 1.37231445 11.85302734 C1.43698251 13.85894807 1.49683106 15.86502228 1.55664062 17.87109375 C1.59853516 19.12792969 1.64042969 20.38476562 1.68359375 21.6796875 C1.72025146 22.84226074 1.75690918 24.00483398 1.79467773 25.20263672 C1.81821659 27.9535501 1.81821659 27.9535501 3 30 C6.65149561 30.60383547 10.30350275 30.74506916 14 31 C14 36.61 14 42.22 14 48 C-6.39496528 48.55121528 -6.39496528 48.55121528 -13.4375 42.25 C-16.29514497 39.09946621 -17.17419277 36.12903617 -18 32 C-13.17032258 35.30451613 -13.17032258 35.30451613 -12.25 39.0625 C-11.3309757 42.00716515 -11.3309757 42.00716515 -9.41015625 42.98046875 C-2.27988789 45.59622828 5.49269418 46.15926088 13 47 C13 42.71 13 38.42 13 34 C11.618125 34.061875 10.23625 34.12375 8.8125 34.1875 C4.15889598 34.39587033 3.49278074 33.69566844 -1 31 C-0.67 20.77 -0.34 10.54 0 0 Z " fill="#87AAC0" transform="translate(691,174)"/>
<path d="M0 0 C3.37132772 4.49510363 3.59485864 6.06629104 3.40625 11.40234375 C2.59865526 16.56629087 0.13879839 20.13625772 -3.76171875 23.53515625 C-11.50492934 28.92242041 -21.03853887 29.87171735 -30.21484375 28.72265625 C-38.45636256 27.24340928 -44.42325893 23.09956054 -50 17 C-49.67 16.34 -49.34 15.68 -49 15 C-48.32517578 15.68835938 -48.32517578 15.68835938 -47.63671875 16.390625 C-40.68674537 23.02025892 -33.53050291 26.16616597 -23.875 26.375 C-18.73084646 26.19462059 -13.95052237 25.36738219 -9 24 C-7.66721288 23.66448935 -6.33403103 23.33053001 -5 23 C-4.67 21.02 -4.34 19.04 -4 17 C-3.01 17 -2.02 17 -1 17 C-1 16.34 -1 15.68 -1 15 C-0.34 15 0.32 15 1 15 C0.505 7.575 0.505 7.575 0 0 Z " fill="#88AABF" transform="translate(904,194)"/>
<path d="M0 0 C1.46179688 0.04737305 1.46179688 0.04737305 2.953125 0.09570312 C5.34688977 0.17784211 7.73435168 0.29258327 10.125 0.4375 C6.99631956 9.57651197 3.14754681 16.44106505 -5.4375 21.375 C-11.64381798 24.2335514 -18.13422901 24.33065781 -24.875 24.4375 C-20.33273428 21.78027455 -15.30305287 21.31361947 -10.1875 20.4140625 C-6.60094309 19.35670492 -5.3104868 18.17742265 -2.875 15.4375 C-2.215 15.4375 -1.555 15.4375 -0.875 15.4375 C-0.545 14.4475 -0.215 13.4575 0.125 12.4375 C1.115 12.4375 2.105 12.4375 3.125 12.4375 C3.125 11.4475 3.125 10.4575 3.125 9.4375 C3.785 9.4375 4.445 9.4375 5.125 9.4375 C4.939375 8.674375 4.75375 7.91125 4.5625 7.125 C4.125 4.4375 4.125 4.4375 5.125 1.4375 C-5.19574402 2.28921634 -5.19574402 2.28921634 -12.875 8.4375 C-14.99609375 8.08203125 -14.99609375 8.08203125 -16.875 7.4375 C-12.37009648 0.09604437 -8.27536507 -0.51020205 0 0 Z " fill="#86AAC0" transform="translate(837.875,198.5625)"/>
<path d="M0 0 C-3.44341657 1.14780552 -4.51121309 0.71023447 -8 0 C-10.81264187 -0.19971422 -13.61854263 -0.2304069 -16.4375 -0.25 C-17.17548828 -0.270625 -17.91347656 -0.29125 -18.67382812 -0.3125 C-23.57878644 -0.3473797 -26.65632067 0.51041004 -31 3 C-31.66 3 -32.32 3 -33 3 C-33.268125 3.5775 -33.53625 4.155 -33.8125 4.75 C-35 7 -35 7 -36.5625 9 C-38.92173946 12.28242012 -39.15348985 15.52761495 -39.1875 19.5 C-39.20167969 20.2528125 -39.21585938 21.005625 -39.23046875 21.78125 C-38.96979651 24.29077255 -38.3488327 25.875706 -37 28 C-34.94999129 28.80528889 -34.94999129 28.80528889 -33 29 C-33.33 29.99 -33.66 30.98 -34 32 C-38.52440778 28.94296772 -40.32851476 26.19040153 -42 21 C-42.70693044 14.40198259 -40.75017371 9.89451806 -37.375 4.3125 C-27.56928225 -5.23517255 -11.87679553 -4.83123886 0 0 Z " fill="#88ABBD" transform="translate(895,159)"/>
<path d="M0 0 C6.27 0 12.54 0 19 0 C19 2.64 19 5.28 19 8 C17.29159719 6.36587557 16.06546953 5.13093906 15 3 C9.60513518 1.75790061 9.60513518 1.75790061 4.38842773 3.04394531 C1.64561618 4.84899576 1.64561618 4.84899576 1.46411133 8.33813477 C1.47840681 9.70638193 1.51939457 11.0745188 1.58203125 12.44140625 C1.59384933 13.16488754 1.60566742 13.88836884 1.61784363 14.6337738 C1.65906104 16.94458222 1.73392831 19.25268451 1.8125 21.5625 C1.87515848 23.87558233 1.93064702 26.18843184 1.97502136 28.50193787 C2.00428112 29.94124321 2.04505241 31.38036894 2.0983429 32.81898499 C2.14156071 34.54576033 2.07942789 36.27451106 2 38 C1.34 38.66 0.68 39.32 0 40 C0 26.8 0 13.6 0 0 Z " fill="#83A9C1" transform="translate(713,157)"/>
<path d="M0 0 C-3.66743492 1.14757811 -5.84692195 0.49656429 -9.52734375 -0.5078125 C-17.62205399 -2.11908184 -25.63205356 -1.75095455 -33 2 C-35.22977996 3.97901574 -35.22977996 3.97901574 -37 6 C-37.70125 6.309375 -38.4025 6.61875 -39.125 6.9375 C-41.74531808 8.42234691 -42.11757511 10.2056545 -43 13 C-43.66 13 -44.32 13 -45 13 C-44.938125 13.94875 -44.87625 14.8975 -44.8125 15.875 C-44.874375 16.90625 -44.93625 17.9375 -45 19 C-45.99 19.66 -46.98 20.32 -48 21 C-47.5186004 13.29760639 -44.31837045 7.86795419 -38.625 2.6875 C-27.19860833 -6.45361334 -12.78205659 -5.63618243 0 0 Z " fill="#87AAC0" transform="translate(834,160)"/>
<path d="M0 0 C0.33 0 0.66 0 1 0 C1.01981934 0.76666992 1.03963867 1.53333984 1.06005859 2.32324219 C1.15535446 5.79917219 1.26501598 9.27450506 1.375 12.75 C1.4059375 13.9565625 1.436875 15.163125 1.46875 16.40625 C1.50742187 17.56640625 1.54609375 18.7265625 1.5859375 19.921875 C1.6173584 20.99018555 1.6487793 22.05849609 1.68115234 23.15917969 C1.99483212 25.95395602 2.44628129 27.67148166 4 30 C6.11949501 30.66339065 6.11949501 30.66339065 8.5 30.6875 C12.87179487 30.93589744 12.87179487 30.93589744 15 32 C15.02685412 34.31243792 15.04632841 36.6249627 15.0625 38.9375 C15.07410156 40.22527344 15.08570313 41.51304687 15.09765625 42.83984375 C15 46 15 46 14 47 C5.55725771 47.51710553 -2.28236253 47.85881873 -10 44 C-6.83133761 42.9437792 -5.55241365 43.045794 -2.33203125 43.55859375 C-0.99301758 43.76645508 -0.99301758 43.76645508 0.37304688 43.97851562 C1.30181641 44.12998047 2.23058594 44.28144531 3.1875 44.4375 C4.12787109 44.58509766 5.06824219 44.73269531 6.03710938 44.88476562 C8.35908237 45.25015224 10.67968175 45.62424855 13 46 C12.67 41.38 12.34 36.76 12 32 C10.55625 32.185625 9.1125 32.37125 7.625 32.5625 C3.25 33.125 3.25 33.125 1 32 C-0.28391751 28.56609044 -0.11414329 25.11152457 -0.09765625 21.484375 C-0.09443359 20.23398438 -0.09121094 18.98359375 -0.08789062 17.6953125 C-0.07951172 16.39335937 -0.07113281 15.09140625 -0.0625 13.75 C-0.05798828 12.43257812 -0.05347656 11.11515625 -0.04882812 9.7578125 C-0.03704316 6.50516259 -0.02059011 3.25260416 0 0 Z " fill="#C1CB89" transform="translate(395,174)"/>
<path d="M0 0 C0 0.66 0 1.32 0 2 C0.804375 2.474375 1.60875 2.94875 2.4375 3.4375 C5 5 5 5 6 8 C1.32121212 6.18047138 1.32121212 6.18047138 -0.86328125 4.953125 C-4.7645219 3.21290065 -8.82250332 3.45746796 -13 4 C-17.35800767 6.41081275 -19.35830998 9.33414417 -21 14 C-21.76721732 20.35844488 -21.22034726 25.44767713 -18 31 C-15.46900795 33.41144481 -15.46900795 33.41144481 -13 35 C-13.33 35.66 -13.66 36.32 -14 37 C-18.8 34.53846154 -18.8 34.53846154 -19.8125 31.8125 C-19.874375 31.214375 -19.93625 30.61625 -20 30 C-20.66 30 -21.32 30 -22 30 C-23.13878897 26.34676499 -23.16716582 22.87312562 -23.1875 19.0625 C-23.20167969 17.85722656 -23.21585937 16.65195313 -23.23046875 15.41015625 C-23.00944874 12.13980938 -22.40750326 9.93183485 -21 7 C-20.34 7 -19.68 7 -19 7 C-18.79375 6.401875 -18.5875 5.80375 -18.375 5.1875 C-14.27329497 -1.33793982 -6.78384296 -0.32591416 0 0 Z " fill="#C2CC87" transform="translate(455,169)"/>
<path d="M0 0 C5.12907966 4.4216204 6.69645543 9.48227715 8 16 C8 19.63 8 23.26 8 27 C-7.18 27 -22.36 27 -38 27 C-35.56226865 24.56226865 -34.38911094 24.38512624 -31 24 C-29.65784424 24.23481079 -29.65784424 24.23481079 -28.28857422 24.47436523 C-24.68075779 25.05102661 -21.28574265 25.112751 -17.6328125 25.09765625 C-16.95322479 25.0962413 -16.27363708 25.09482635 -15.57345581 25.09336853 C-13.42392388 25.08781518 -11.27449992 25.07527169 -9.125 25.0625 C-7.65885568 25.05747896 -6.19270971 25.05291711 -4.7265625 25.04882812 C-1.15100717 25.03786111 2.42448586 25.02062919 6 25 C5.7697175 22.47598256 5.51645793 19.95774797 5.25 17.4375 C5.188125 16.73302734 5.12625 16.02855469 5.0625 15.30273438 C4.47156765 9.95972102 2.82755837 6.55742639 0 2 C0 1.34 0 0.68 0 0 Z " fill="#87A9BE" transform="translate(655,167)"/>
<path d="M0 0 C0.99 0.495 0.99 0.495 2 1 C1.99476318 1.84594727 1.98952637 2.69189453 1.98413086 3.56347656 C1.96688673 6.76171609 1.95445296 9.9599316 1.94506836 13.15820312 C1.94010049 14.53125803 1.9333239 15.90430782 1.92456055 17.27734375 C1.87092085 25.91018006 2.10202535 34.41102941 3 43 C6.50685958 43.95611549 9.60571981 44.10211174 13.25 44.0625 C14.86648438 44.04896484 14.86648438 44.04896484 16.515625 44.03515625 C17.74539063 44.01775391 17.74539063 44.01775391 19 44 C19 44.66 19 45.32 19 46 C12.73 46 6.46 46 0 46 C0 30.82 0 15.64 0 0 Z " fill="#85A8BF" transform="translate(572,176)"/>
<path d="M0 0 C1.28132812 0.00902344 2.56265625 0.01804688 3.8828125 0.02734375 C4.87023437 0.03894531 5.85765625 0.05054688 6.875 0.0625 C6.545 1.0525 6.215 2.0425 5.875 3.0625 C5.215 2.7325 4.555 2.4025 3.875 2.0625 C-0.60110345 1.5260711 -4.07060061 1.47921523 -8.0625 3.6875 C-12.40191533 8.6844025 -12.5089548 13.99871473 -12.37890625 20.37109375 C-11.94042166 25.01903039 -10.60185838 28.35843264 -7.5 31.9375 C-3.85954574 33.6619257 -0.11064448 33.8155263 3.875 34.0625 C1.875 36.0625 1.875 36.0625 -0.04296875 36.3203125 C-5.01745887 36.02920637 -7.69598652 35.08798976 -11.125 31.375 C-13.76753875 27.93298648 -15.03473209 25.48562767 -15.125 21.0625 C-15.18429687 20.38445312 -15.24359375 19.70640625 -15.3046875 19.0078125 C-15.66593026 12.86668551 -13.97577515 8.44588343 -11.125 3.0625 C-10.465 3.0625 -9.805 3.0625 -9.125 3.0625 C-9.125 2.4025 -9.125 1.7425 -9.125 1.0625 C-6.12186252 -0.43906874 -3.33432478 -0.03031204 0 0 Z " fill="#87A9BF" transform="translate(817.125,171.9375)"/>
<path d="M0 0 C0 0.33 0 0.66 0 1 C-0.88042969 1.09796875 -1.76085937 1.1959375 -2.66796875 1.296875 C-3.82941406 1.44640625 -4.99085938 1.5959375 -6.1875 1.75 C-7.91033203 1.95882812 -7.91033203 1.95882812 -9.66796875 2.171875 C-13.40634803 3.10099154 -15.27511779 4.30998832 -18 7 C-19.24473532 10.73420597 -19.23209785 14.27365238 -19.31640625 18.16796875 C-19.33718735 18.96278152 -19.35796844 19.7575943 -19.37937927 20.57649231 C-19.44472087 23.11340763 -19.50368808 25.65042573 -19.5625 28.1875 C-19.60569986 29.90821372 -19.64931463 31.62891708 -19.69335938 33.34960938 C-19.80038648 37.56630113 -19.90169724 41.7830962 -20 46 C-24.95 46 -29.9 46 -35 46 C-35 45.67 -35 45.34 -35 45 C-28.565 44.505 -28.565 44.505 -22 44 C-21.98018066 42.90010742 -21.96036133 41.80021484 -21.93994141 40.66699219 C-21.86380099 36.58163778 -21.77509664 32.49663562 -21.68261719 28.41162109 C-21.64436229 26.6444393 -21.6095033 24.87718056 -21.578125 23.10986328 C-21.53239848 20.56775437 -21.47441711 18.02617352 -21.4140625 15.484375 C-21.39673569 14.30134796 -21.39673569 14.30134796 -21.37905884 13.09442139 C-21.18855965 5.99526107 -21.18855965 5.99526107 -19 3 C-12.90217863 -0.71171735 -6.97967056 -0.30944352 0 0 Z " fill="#88A9BB" transform="translate(752,176)"/>
<path d="M0 0 C7.59 0 15.18 0 23 0 C23 0.33 23 0.66 23 1 C21.58847656 1.07347656 21.58847656 1.07347656 20.1484375 1.1484375 C18.28058594 1.26058594 18.28058594 1.26058594 16.375 1.375 C15.14523437 1.44460937 13.91546875 1.51421875 12.6484375 1.5859375 C7.55415372 2.16408962 4.10269118 2.68289664 0.75 6.6875 C-1.0480229 10.0909005 -2.01989982 13.28962076 -3 17 C-3.66 17.99 -4.32 18.98 -5 20 C-5.66 20 -6.32 20 -7 20 C-6.29940087 15.43280317 -4.68646219 11.42902286 -2.9375 7.1875 C-1.968125 4.815625 -0.99875 2.44375 0 0 Z " fill="#85A9BF" transform="translate(568,140)"/>
<path d="M0 0 C14.1466997 -0.45309714 14.1466997 -0.45309714 18.50390625 3.29296875 C19.9375 4.8125 19.9375 4.8125 22 8 C21.8125 10.875 21.8125 10.875 21 13 C19.6536592 10.9804888 18.34146182 8.93784165 17.0625 6.875 C15.25223413 3.75823926 15.25223413 3.75823926 12 3 C7.27197165 2.51116995 3.30228858 2.34885571 -1 4.5 C-3.7272199 7.90902488 -4.21573371 10.72218386 -5 15 C-5.66 14.67 -6.32 14.34 -7 14 C-6.49287967 10.28111761 -5.88391785 7.26545761 -4 4 C-3.34 4 -2.68 4 -2 4 C-1.34 2.68 -0.68 1.36 0 0 Z " fill="#86ABC2" transform="translate(623,170)"/>
<path d="M0 0 C0.33 0 0.66 0 1 0 C0.11855038 8.28562647 -2.6919496 15.44743597 -6.1484375 22.98046875 C-7.12112662 25.28725901 -7.67970878 27.51774305 -8 30 C-8.66 30 -9.32 30 -10 30 C-10.495 32.475 -10.495 32.475 -11 35 C-11.99 35 -12.98 35 -14 35 C-9.33333333 23.33333333 -4.66666667 11.66666667 0 0 Z " fill="#87A9BF" transform="translate(559,162)"/>
<path d="M0 0 C1.051875 0.680625 1.051875 0.680625 2.125 1.375 C5.02984591 3.01686943 7.8139348 4.03677099 11 5 C11 5.33 11 5.66 11 6 C18.12393674 7.50698662 24.15803402 6.46310775 31 4 C32.35237784 3.02590967 33.69067655 2.03123706 35 1 C35.66 1 36.32 1 37 1 C36.67 1.99 36.34 2.98 36 4 C35.01 4 34.02 4 33 4 C33 4.66 33 5.32 33 6 C25.62766837 9.46933253 17.45019378 10.75646055 9.52734375 8.203125 C7.56933101 7.25156741 5.79810763 6.2237735 4 5 C3.175 4.46375 2.35 3.9275 1.5 3.375 C1.005 2.92125 0.51 2.4675 0 2 C0 1.34 0 0.68 0 0 Z " fill="#C1CB8A" transform="translate(423,213)"/>
<path d="M0 0 C6.27 0 12.54 0 19 0 C19.66 1.65 20.32 3.3 21 5 C23.01735205 6.34410262 23.01735205 6.34410262 25 7 C23.02 7 21.04 7 19 7 C18.67 5.35 18.34 3.7 18 2 C17.01 2.185625 16.02 2.37125 15 2.5625 C10.82912322 3.17661683 7.14965731 2.65520905 3 2 C3 3.98 3 5.96 3 8 C1 6 1 6 0 0 Z " fill="#88A9BF" transform="translate(851,201)"/>
<path d="M0 0 C0.79664063 0.09023437 1.59328125 0.18046875 2.4140625 0.2734375 C4.375 0.625 4.375 0.625 5.375 1.625 C5.4739294 3.78980797 5.504711 5.95793785 5.5 8.125 C5.50257813 9.3109375 5.50515625 10.496875 5.5078125 11.71875 C5.375 14.625 5.375 14.625 4.375 15.625 C2.52212498 15.69726502 0.66666122 15.7088122 -1.1875 15.6875 C-2.19941406 15.67847656 -3.21132813 15.66945312 -4.25390625 15.66015625 C-5.03636719 15.64855469 -5.81882812 15.63695312 -6.625 15.625 C-6.295 14.635 -5.965 13.645 -5.625 12.625 C-2.985 12.955 -0.345 13.285 2.375 13.625 C2.705 9.665 3.035 5.705 3.375 1.625 C-0.255 1.955 -3.885 2.285 -7.625 2.625 C-7.625 1.965 -7.625 1.305 -7.625 0.625 C-4.56689824 -0.39436725 -3.12698793 -0.37686825 0 0 Z " fill="#C1CB8A" transform="translate(404.625,156.375)"/>
<path d="M0 0 C1.65 0 3.3 0 5 0 C6.30026585 3.64282262 7.58860867 7.28975711 8.875 10.9375 C9.23980469 11.95908203 9.60460937 12.98066406 9.98046875 14.03320312 C12.07192375 19.98434327 13.77384682 25.81115317 15 32 C13.68 31.67 12.36 31.34 11 31 C11 27.7 11 24.4 11 21 C10.34 21 9.68 21 9 21 C8.82984375 20.38253906 8.6596875 19.76507813 8.484375 19.12890625 C5.76092546 8.76217039 5.76092546 8.76217039 0 0 Z " fill="#C1CB8A" transform="translate(272,140)"/>
<path d="M0 0 C1.0254159 3.13101768 0.99564752 4.81253919 -0.21484375 7.86328125 C-0.48876953 8.58580078 -0.76269531 9.30832031 -1.04492188 10.05273438 C-1.63544276 11.54777304 -2.22657904 13.04256879 -2.81835938 14.53710938 C-4.60629757 19.25609379 -5.12261685 22.88881358 -5 28 C-6.875 30.1875 -6.875 30.1875 -9 32 C-10.23512079 34.13309192 -10.23512079 34.13309192 -11 36 C-10.41832029 31.20266514 -9.45493716 26.82207861 -7.96875 22.2265625 C-7.57042969 20.99035156 -7.17210937 19.75414062 -6.76171875 18.48046875 C-6.55466309 17.84802246 -6.34760742 17.21557617 -6.13427734 16.56396484 C-5.49548046 14.61118393 -4.86626575 12.65550041 -4.23828125 10.69921875 C-1.13823515 1.13823515 -1.13823515 1.13823515 0 0 Z " fill="#C2CB88" transform="translate(315,150)"/>
<path d="M0 0 C0.66 0.66 1.32 1.32 2 2 C-1.375 2.125 -1.375 2.125 -5 2 C-5.66 1.34 -6.32 0.68 -7 0 C-14.96345973 -0.69196484 -23.07726979 0.11087597 -31 1 C-23.62591221 -6.37408779 -8.6071744 -3.73777693 0 0 Z " fill="#88AAC1" transform="translate(646,159)"/>
<path d="M0 0 C3 1 3 1 4.1875 2.6875 C5.61924144 6.7624564 5.53836523 9.8155965 3.75 13.75 C1.85985126 16.18019123 0.82298867 16.88776241 -2 18 C-4.5078125 18.23046875 -4.5078125 18.23046875 -7.125 18.1875 C-7.99382812 18.18105469 -8.86265625 18.17460937 -9.7578125 18.16796875 C-12 18 -12 18 -14 17 C-14 16.34 -14 15.68 -14 15 C-14.66 14.67 -15.32 14.34 -16 14 C-12.125 14.875 -12.125 14.875 -11 16 C-5.67501582 16.60628055 -5.67501582 16.60628055 -1.125 14.5 C-0.75375 14.005 -0.3825 13.51 0 13 C0.66 13 1.32 13 2 13 C1.85769192 11.58297487 1.71099254 10.1663904 1.5625 8.75 C1.48128906 7.96109375 1.40007812 7.1721875 1.31640625 6.359375 C1.02365007 4.17635361 0.57935581 2.1226818 0 0 Z " fill="#C1CB8A" transform="translate(360,130)"/>
<path d="M0 0 C6.6 0 13.2 0 20 0 C20 4.95 20 9.9 20 15 C19.34 15 18.68 15 18 15 C18 11.04 18 7.08 18 3 C12.29309366 2.00749455 6.78591511 1.89522488 1 2 C0.67 1.34 0.34 0.68 0 0 Z " fill="#86A9BE" transform="translate(672,141)"/>
<path d="M0 0 C4.95 0 9.9 0 15 0 C13 2 13 2 10.6171875 2.1953125 C9.71226562 2.17210937 8.80734375 2.14890625 7.875 2.125 C6.50988281 2.09792969 6.50988281 2.09792969 5.1171875 2.0703125 C4.41851562 2.04710937 3.71984375 2.02390625 3 2 C3.28359887 3.4391134 3.57721399 4.87625518 3.875 6.3125 C4.03742188 7.11300781 4.19984375 7.91351563 4.3671875 8.73828125 C4.94478999 11.25301118 4.94478999 11.25301118 7 14 C7.4140625 16.48046875 7.4140625 16.48046875 7.625 19.1875 C7.69976562 20.08855469 7.77453125 20.98960937 7.8515625 21.91796875 C7.92503906 22.94857422 7.92503906 22.94857422 8 24 C5.56762847 20.3514427 4.31968809 16.67882421 2.875 12.5625 C2.59785156 11.79873047 2.32070313 11.03496094 2.03515625 10.24804688 C1.77347656 9.50748047 1.51179688 8.76691406 1.2421875 8.00390625 C1.0035498 7.33174072 0.76491211 6.6595752 0.51904297 5.96704102 C0 4 0 4 0 0 Z " fill="#C2CB8B" transform="translate(257,139)"/>
<path d="M0 0 C0.33 0 0.66 0 1 0 C1.33 3.63 1.66 7.26 2 11 C7.52500582 13.21000233 12.07860744 14.1741586 18 14 C15.5107319 16.38969738 14.09893865 16.98717462 10.625 17.4375 C6.31282207 16.91706473 4.2784816 15.82101905 1 13 C-1.7808541 8.6473588 -0.82483573 4.8665308 0 0 Z " fill="#89AABD" transform="translate(867,136)"/>
<path d="M0 0 C3.45185037 2.66733892 3.91460256 5.9179618 5 10 C1.56294295 10.14505175 -1.87333033 10.23398014 -5.3125 10.3125 C-6.28896484 10.35439453 -7.26542969 10.39628906 -8.27148438 10.43945312 C-10.93793866 10.48526849 -13.37713857 10.4882833 -16 10 C-18.16796875 7.48046875 -18.16796875 7.48046875 -19 5 C-18.01 5 -17.02 5 -16 5 C-16 5.99 -16 6.98 -16 8 C-11.05 8 -6.1 8 -1 8 C-0.67 5.36 -0.34 2.72 0 0 Z " fill="#88AAC0" transform="translate(843,170)"/>
<path d="M0 0 C3.3 0 6.6 0 10 0 C10 5.28 10 10.56 10 16 C5.71 16 1.42 16 -3 16 C-3 15.34 -3 14.68 -3 14 C-2.28972656 14.01160156 -1.57945312 14.02320313 -0.84765625 14.03515625 C0.07144531 14.04417969 0.99054687 14.05320313 1.9375 14.0625 C3.31228516 14.07990234 3.31228516 14.07990234 4.71484375 14.09765625 C6.96593327 14.25949049 6.96593327 14.25949049 8 13 C8.23363881 11.15108054 8.41303635 9.29511969 8.5625 7.4375 C8.64628906 6.42558594 8.73007812 5.41367188 8.81640625 4.37109375 C8.87699219 3.58863281 8.93757812 2.80617187 9 2 C6.03 2 3.06 2 0 2 C0 1.34 0 0.68 0 0 Z " fill="#89A8BE" transform="translate(695,157)"/>
<path d="M0 0 C1.77155654 0.11429397 3.54226229 0.24183037 5.3125 0.375 C6.79169922 0.47941406 6.79169922 0.47941406 8.30078125 0.5859375 C11 1 11 1 14 3 C16.1493882 3.27001046 16.1493882 3.27001046 18.4375 3.3125 C22.06911122 3.63833787 22.78618083 3.80654456 25.625 6.375 C26.305625 7.674375 26.305625 7.674375 27 9 C26.67 9.99 26.34 10.98 26 12 C25.44731445 11.37963867 24.89462891 10.75927734 24.32519531 10.12011719 C21.80083837 7.81840407 20.04020778 7.05866747 16.796875 6.078125 C15.8171875 5.77519531 14.8375 5.47226563 13.828125 5.16015625 C12.81234375 4.85980469 11.7965625 4.55945313 10.75 4.25 C9.71875 3.93417969 8.6875 3.61835938 7.625 3.29296875 C5.08653113 2.51732548 2.54511348 1.7534959 0 1 C0 0.67 0 0.34 0 0 Z " fill="#88AAC1" transform="translate(863,191)"/>
<path d="M0 0 C5.6714079 6.75167608 9.3287059 17.20320397 9 26 C9.66 26 10.32 26 11 26 C11 27.65 11 29.3 11 31 C7.41712321 27.14974435 6.38866961 22.42135781 4.9375 17.5 C4.42887146 15.80115507 3.91725343 14.10320171 3.40234375 12.40625 C3.18054443 11.65666016 2.95874512 10.90707031 2.73022461 10.13476562 C2.05389351 7.96875237 2.05389351 7.96875237 0.91235352 5.97460938 C0 4 0 4 0 0 Z " fill="#C1CC89" transform="translate(272,182)"/>
<path d="M0 0 C2 3 2 3 3 8 C-2.94 8 -8.88 8 -15 8 C-15.33 6.68 -15.66 5.36 -16 4 C-15.67 4.66 -15.34 5.32 -15 6 C-10.38 5.67 -5.76 5.34 -1 5 C-0.67 3.35 -0.34 1.7 0 0 Z " fill="#89A8BC" transform="translate(904,170)"/>
<path d="M0 0 C2.12046792 3.53411321 2.53199289 6.94393835 3 11 C3.598125 11.020625 4.19625 11.04125 4.8125 11.0625 C7 12 7 12 8.75 15.5625 C9.1625 16.696875 9.575 17.83125 10 19 C6.45470774 17.56188795 4.89221403 15.8685536 2.8125 12.6875 C2.30332031 11.92824219 1.79414062 11.16898438 1.26953125 10.38671875 C-0.07851792 7.85238632 -0.68875152 5.84769132 -1 3 C-0.67 2.01 -0.34 1.02 0 0 Z " fill="#85A9C0" transform="translate(787,197)"/>
<path d="M0 0 C0 4.78850067 -1.86091917 9.05330293 -3.375 13.5625 C-3.69210937 14.53380859 -4.00921875 15.50511719 -4.3359375 16.50585938 C-4.6453125 17.43333984 -4.9546875 18.36082031 -5.2734375 19.31640625 C-5.55622559 20.16662354 -5.83901367 21.01684082 -6.13037109 21.89282227 C-7 24 -7 24 -9 26 C-7.48468193 16.46240976 -5.84158456 7.85592406 0 0 Z " fill="#C1CB8A" transform="translate(334,150)"/>
<path d="M0 0 C2.31 0 4.62 0 7 0 C7 0.66 7 1.32 7 2 C5.02 2.33 3.04 2.66 1 3 C1.33 6.3 1.66 9.6 2 13 C4.475 13.99 4.475 13.99 7 15 C7 15.33 7 15.66 7 16 C4.69 16 2.38 16 0 16 C0 10.72 0 5.44 0 0 Z " fill="#88A9BD" transform="translate(665,157)"/>
<path d="M0 0 C7.32110622 1.16208035 12.09297127 3.559255 18 8 C17.67 8.66 17.34 9.32 17 10 C16.33613281 9.57847656 15.67226563 9.15695313 14.98828125 8.72265625 C14.10527344 8.17480469 13.22226562 7.62695312 12.3125 7.0625 C11.44238281 6.51722656 10.57226562 5.97195312 9.67578125 5.41015625 C7.08959799 3.8782917 7.08959799 3.8782917 4.29296875 3.49609375 C2 3 2 3 0 0 Z " fill="#86A9C1" transform="translate(886,184)"/>
<path d="M0 0 C0 0.66 0 1.32 0 2 C1.65 2.33 3.3 2.66 5 3 C4.67 3.99 4.34 4.98 4 6 C3.154375 5.484375 2.30875 4.96875 1.4375 4.4375 C-2.65526982 2.72597808 -4.74888458 2.87706385 -9 4 C-10.92283085 5.41591827 -10.92283085 5.41591827 -12 7 C-11.75 4.625 -11.75 4.625 -11 2 C-7.7044247 -0.66181082 -4.06660119 -0.15640774 0 0 Z " fill="#87ABC1" transform="translate(883,168)"/>
<path d="M0 0 C0.66 0 1.32 0 2 0 C6.23444992 5.70730207 8.54463719 12.91971647 8 20 C6.33957556 17.50936335 5.44675832 15.74823602 4.4921875 12.98828125 C4.22792969 12.23095703 3.96367188 11.47363281 3.69140625 10.69335938 C3.28728516 9.51483398 3.28728516 9.51483398 2.875 8.3125 C2.59785156 7.51521484 2.32070313 6.71792969 2.03515625 5.89648438 C1.3529846 3.93230048 0.67598902 1.96632027 0 0 Z " fill="#87AABF" transform="translate(520,176)"/>
<path d="M0 0 C4.29 0 8.58 0 13 0 C11.88059018 4.85077588 10.8665284 7.777893 7 11 C7.33 8.03 7.66 5.06 8 2 C5.36 1.67 2.72 1.34 0 1 C0 0.67 0 0.34 0 0 Z " fill="#88A8C0" transform="translate(648,201)"/>
<path d="M0 0 C4.68426609 3.55358117 5.87262444 8.45707015 7 14 C7.04621431 15.66602581 7.05959216 17.33439904 7 19 C4.53463498 16.53463498 4.00999958 14.49471352 2.9375 11.1875 C2.59589844 10.14980469 2.25429688 9.11210937 1.90234375 8.04296875 C1.1090387 5.36771058 0.49204516 2.74429313 0 0 Z " fill="#C1CC88" transform="translate(265,163)"/>
<path d="M0 0 C0.33 0 0.66 0 1 0 C1.46618721 5.4776997 0.40442494 8.85494772 -1.9765625 13.77734375 C-3.36294503 16.78822795 -4.18124075 19.79319292 -5 23 C-6.11378736 19.68177296 -5.87728255 17.75179221 -4.78515625 14.453125 C-4.51123047 13.60878906 -4.23730469 12.76445313 -3.95507812 11.89453125 C-3.51325195 10.58548828 -3.51325195 10.58548828 -3.0625 9.25 C-2.77181641 8.36183594 -2.48113281 7.47367187 -2.18164062 6.55859375 C-1.46360682 4.36917921 -0.73614477 2.18337811 0 0 Z " fill="#C2CB8A" transform="translate(332,97)"/>
<path d="M0 0 C2.71340928 3.20322242 3.93064936 6.26274969 5.1875 10.25 C5.70376953 11.86648437 5.70376953 11.86648437 6.23046875 13.515625 C6.61138672 14.74539062 6.61138672 14.74539062 7 16 C6.34 16 5.68 16 5 16 C5 15.34 5 14.68 5 14 C4.34 13.67 3.68 13.34 3 13 C0.22352378 8.51492303 -0.31416607 5.23610116 0 0 Z " fill="#86AABE" transform="translate(536,176)"/>
<path d="M0 0 C0.66 0.33 1.32 0.66 2 1 C-0.875 5.875 -0.875 5.875 -2 7 C-2.36760731 9.32817964 -2.70241581 11.6618385 -3 14 C-5.34549674 10.48175489 -5.57991403 9.14224306 -5 5 C-2.5 2.125 -2.5 2.125 0 0 Z " fill="#C2CB88" transform="translate(347,129)"/>
<path d="M0 0 C0.33 0.66 0.66 1.32 1 2 C2.051875 2.144375 3.10375 2.28875 4.1875 2.4375 C8.04600623 3.0067878 10.62432087 4.10632634 14 6 C14 6.33 14 6.66 14 7 C7.84777564 6.56826496 4.18082051 5.34594658 -1 2 C-0.67 1.34 -0.34 0.68 0 0 Z " fill="#85A9BE" transform="translate(798,215)"/>
<path d="M0 0 C0 0.33 0 0.66 0 1 C-6.99001647 2.09751783 -13.97234063 3.17321655 -21 4 C-15.40749944 -1.59250056 -7.3046106 -1.34166317 0 0 Z " fill="#C0CB8B" transform="translate(449,156)"/>
<path d="M0 0 C-1.50383297 4.21073233 -4.20664956 5.83237117 -8 8 C-8.99 8 -9.98 8 -11 8 C-3.21621622 0 -3.21621622 0 0 0 Z " fill="#85AAC0" transform="translate(615,160)"/>
<path d="M0 0 C4.62 1.32 9.24 2.64 14 4 C14 4.33 14 4.66 14 5 C12.41705218 5.05437607 10.83355744 5.09296271 9.25 5.125 C8.36828125 5.14820313 7.4865625 5.17140625 6.578125 5.1953125 C3.8864142 4.99139502 2.30095026 4.36551721 0 3 C0 2.01 0 1.02 0 0 Z " fill="#87AAC0" transform="translate(872,179)"/>
<path d="M0 0 C0.33 0 0.66 0 1 0 C0.6083965 5.95507399 -0.37124595 10.62819824 -3 16 C-3.66 15.34 -4.32 14.68 -5 14 C-3.35 9.38 -1.7 4.76 0 0 Z " fill="#C1CB8B" transform="translate(320,134)"/>
<path d="M0 0 C0.33 0 0.66 0 1 0 C1.2954439 5.02254631 0.98514628 7.89542386 -2 12 C-3.30532548 9.38934904 -2.78282536 8.2445219 -2.125 5.4375 C-1.94195313 4.63183594 -1.75890625 3.82617188 -1.5703125 2.99609375 C-1 1 -1 1 0 0 Z " fill="#86A9BC" transform="translate(888,138)"/>
<path d="M0 0 C3.16115776 1.36983503 3.9927092 1.9890638 6 5 C4.1875 5.6875 4.1875 5.6875 2 6 C0.25 4.5625 0.25 4.5625 -1 3 C-0.67 2.01 -0.34 1.02 0 0 Z " fill="#82ABC1" transform="translate(834,161)"/>
<path d="M0 0 C2.31 1.98 4.62 3.96 7 6 C6.67 6.66 6.34 7.32 6 8 C1.3125 4.38671875 1.3125 4.38671875 0 3 C0 2.01 0 1.02 0 0 Z " fill="#88ABBF" transform="translate(896,160)"/>
<path d="M0 0 C0.33 0 0.66 0 1 0 C1.25 3.3125 1.25 3.3125 1 7 C-0.32 7.99 -1.64 8.98 -3 10 C-2.01 6.7 -1.02 3.4 0 0 Z " fill="#C0CB88" transform="translate(325,120)"/>
<path d="M0 0 C0.66 0 1.32 0 2 0 C0.71480435 2.86697492 -0.57129254 4.97607712 -3 7 C-3.66 7 -4.32 7 -5 7 C-5 6.34 -5 5.68 -5 5 C-4.34 5 -3.68 5 -3 5 C-2.5359375 4.0409375 -2.5359375 4.0409375 -2.0625 3.0625 C-1 1 -1 1 0 0 Z " fill="#C2CB88" transform="translate(426,160)"/>
</svg>
